<svg width="61" height="60" viewBox="0 0 61 60" fill="none" xmlns="http://www.w3.org/2000/svg">
<rect opacity="0.2" width="60.8324" height="60" rx="30" fill="#FFD66B"/>
<path d="M26.0761 24.2601L26.1711 24.3431L34.6571 32.8281C34.7683 32.9392 34.8517 33.0749 34.9007 33.2243C34.9496 33.3737 34.9626 33.5326 34.9386 33.688C34.9147 33.8433 34.8544 33.9909 34.7627 34.1186C34.6711 34.2463 34.5506 34.3506 34.4111 34.4231L34.2951 34.4731L23.9101 38.3001C21.9581 39.0201 20.0571 37.1851 20.6501 35.2361L20.7001 35.0901L24.5261 24.7051C24.5766 24.5675 24.6568 24.4427 24.761 24.3396C24.8651 24.2365 24.9907 24.1575 25.1287 24.1083C25.2668 24.059 25.414 24.0407 25.5599 24.0547C25.7058 24.0687 25.8468 24.1145 25.9731 24.1891L26.0761 24.2601ZM35.1071 28.6041C36.0181 28.6521 37.2671 28.8441 38.3531 29.4961C38.5732 29.6266 38.735 29.8365 38.805 30.0827C38.875 30.3289 38.8479 30.5926 38.7294 30.8194C38.6108 31.0462 38.4098 31.219 38.1677 31.3021C37.9256 31.3852 37.6609 31.3723 37.4281 31.2661L37.3241 31.2111C36.6421 30.8011 35.7701 30.6411 35.0021 30.6011C34.6856 30.5827 34.3683 30.5841 34.0521 30.6051L33.7361 30.6361C33.4752 30.6697 33.2116 30.5992 33.0023 30.4399C32.793 30.2806 32.6549 30.0452 32.618 29.7848C32.581 29.5244 32.6482 29.2599 32.8048 29.0486C32.9615 28.8373 33.1951 28.6963 33.4551 28.6561C34.0027 28.5853 34.556 28.5676 35.1071 28.6031M37.1321 25.8171C37.3869 25.8176 37.6318 25.9154 37.817 26.0904C38.0021 26.2655 38.1135 26.5046 38.1283 26.7589C38.1431 27.0133 38.0602 27.2637 37.8966 27.4591C37.7331 27.6544 37.5011 27.78 37.2481 27.8101L37.1321 27.8171H36.4241C36.1693 27.8165 35.9243 27.7187 35.7391 27.5437C35.554 27.3686 35.4426 27.1295 35.4278 26.8752C35.413 26.6208 35.4959 26.3704 35.6595 26.175C35.8231 25.9797 36.055 25.8541 36.3081 25.8241L36.4241 25.8171H37.1321ZM33.9501 25.0501C34.1222 25.2222 34.2257 25.4513 34.2409 25.6944C34.2562 25.9374 34.1823 26.1777 34.0331 26.3701L33.9501 26.4641L32.8891 27.5251C32.7091 27.7044 32.4676 27.8085 32.2137 27.8163C31.9597 27.824 31.7123 27.7348 31.5218 27.5668C31.3312 27.3988 31.2118 27.1645 31.1877 26.9116C31.1636 26.6587 31.2366 26.406 31.3921 26.2051L31.4751 26.1111L32.5351 25.0511C32.6279 24.9581 32.7382 24.8843 32.8596 24.834C32.981 24.7837 33.1111 24.7578 33.2426 24.7578C33.374 24.7578 33.5041 24.7837 33.6255 24.834C33.7469 24.8843 33.8572 24.9571 33.9501 25.0501ZM31.3631 19.7851C31.8111 21.1311 31.5711 22.6051 31.2911 23.6351C31.1228 24.2772 30.8917 24.9012 30.6011 25.4981C30.4826 25.7354 30.2748 25.916 30.0232 26.0001C29.7716 26.0842 29.4969 26.065 29.2596 25.9466C29.0222 25.8281 28.8416 25.6203 28.7575 25.3687C28.6734 25.1171 28.6926 24.8424 28.8111 24.6051C29.0429 24.1256 29.2272 23.6245 29.3611 23.1091C29.5881 22.2771 29.7021 21.3741 29.5271 20.6341L29.4661 20.4181C29.4225 20.293 29.4042 20.1605 29.4122 20.0283C29.4202 19.8961 29.4544 19.7669 29.5129 19.648C29.5713 19.5291 29.6527 19.4231 29.7524 19.3359C29.8522 19.2488 29.9682 19.1823 30.0938 19.1404C30.2195 19.0985 30.3522 19.0819 30.4842 19.0917C30.6163 19.1015 30.7451 19.1374 30.8632 19.1974C30.9813 19.2574 31.0863 19.3402 31.1721 19.4411C31.2579 19.542 31.3228 19.6589 31.3631 19.7851ZM36.7781 22.2231C36.9655 22.4106 37.0708 22.6649 37.0708 22.9301C37.0708 23.1952 36.9655 23.4495 36.7781 23.6371L36.0711 24.3441C35.9788 24.4396 35.8685 24.5157 35.7465 24.5682C35.6245 24.6206 35.4932 24.6482 35.3605 24.6493C35.2277 24.6505 35.096 24.6252 34.9731 24.5749C34.8502 24.5246 34.7386 24.4503 34.6447 24.3565C34.5508 24.2626 34.4765 24.1509 34.4262 24.028C34.376 23.9051 34.3507 23.7734 34.3518 23.6407C34.353 23.5079 34.3805 23.3767 34.433 23.2547C34.4854 23.1326 34.5615 23.0223 34.6571 22.9301L35.3641 22.2231C35.5516 22.0356 35.8059 21.9303 36.0711 21.9303C36.3362 21.9303 36.5905 22.0356 36.7781 22.2231Z" fill="#FFC327"/>
</svg>
