<svg width="61" height="60" viewBox="0 0 61 60" fill="none" xmlns="http://www.w3.org/2000/svg">
<rect opacity="0.1" width="60.9764" height="60" rx="30" fill="#5B93FF"/>
<path d="M30 24C30.5304 24 31.0391 23.7893 31.4142 23.4142C31.7893 23.0391 32 22.5304 32 22C32 21.62 31.9 21.27 31.71 20.97L30 18L28.29 20.97C28.1 21.27 28 21.62 28 22C28 23.1 28.9 24 30 24ZM34.6 33.99L33.53 32.92L32.45 33.99C31.15 35.29 28.87 35.3 27.56 33.99L26.49 32.92L25.4 33.99C24.75 34.64 23.88 35 22.96 35C22.23 35 21.56 34.77 21 34.39V39C21 39.55 21.45 40 22 40H38C38.55 40 39 39.55 39 39V34.39C38.44 34.77 37.77 35 37.04 35C36.12 35 35.25 34.64 34.6 33.99ZM36 27H31V25H29V27H24C22.34 27 21 28.34 21 30V31.54C21 32.62 21.88 33.5 22.96 33.5C23.48 33.5 23.98 33.3 24.34 32.93L26.48 30.8L28.61 32.93C29.35 33.67 30.64 33.67 31.38 32.93L33.52 30.8L35.65 32.93C36.02 33.3 36.51 33.5 37.03 33.5C38.11 33.5 38.99 32.62 38.99 31.54V30C39 28.34 37.66 27 36 27Z" fill="#177DBA"/>
</svg>
