<svg width="61" height="60" viewBox="0 0 61 60" fill="none" xmlns="http://www.w3.org/2000/svg">
<rect opacity="0.1" width="60.0922" height="60" rx="30" fill="#FF8F6B"/>
<path fill-rule="evenodd" clip-rule="evenodd" d="M34.9842 25C35.016 24.9291 35.031 24.8519 35.0278 24.7743H35.054C34.942 22.1059 32.7353 20 30.0513 20C27.3672 20 25.1605 22.1059 25.0485 24.7743C25.0353 24.849 25.0353 24.9253 25.0485 25H24.9702C23.6868 25 22.3148 25.846 21.9165 28.1201L21.1375 34.3147C20.5002 38.8629 22.8459 40 25.9085 40H34.2112C37.2649 40 39.5398 38.3535 38.9733 34.3147L38.2032 28.1201C37.7341 25.9096 36.4063 25 35.1406 25H34.9842ZM33.5449 25C33.517 24.9279 33.5022 24.8515 33.5013 24.7743C33.5013 22.8568 31.9391 21.3024 30.012 21.3024C28.0849 21.3024 26.5227 22.8568 26.5227 24.7743C26.5359 24.849 26.5359 24.9253 26.5227 25H33.5449ZM27.1388 30.1486C26.65 30.1486 26.2537 29.7413 26.2537 29.2389C26.2537 28.7366 26.65 28.3293 27.1388 28.3293C27.6277 28.3293 28.024 28.7366 28.024 29.2389C28.024 29.7413 27.6277 30.1486 27.1388 30.1486ZM32.0514 29.2389C32.0514 29.7413 32.4477 30.1486 32.9366 30.1486C33.4254 30.1486 33.8217 29.7413 33.8217 29.2389C33.8217 28.7366 33.4254 28.3293 32.9366 28.3293C32.4477 28.3293 32.0514 28.7366 32.0514 29.2389Z" fill="#FF8F6B"/>
</svg>
