<svg width="28" height="29" viewBox="0 0 28 29" fill="none" xmlns="http://www.w3.org/2000/svg">
<mask id="path-1-inside-1_0_1086" fill="white">
<path d="M14.6932 27.4287L14.6792 27.4311L14.5964 27.4724L14.573 27.4771L14.5567 27.4724L14.4739 27.4299C14.4622 27.4264 14.4517 27.4299 14.4459 27.437L14.4412 27.4488L14.4214 27.9535L14.4272 27.9771L14.4389 27.9925L14.5602 28.0797L14.5777 28.0844L14.5917 28.0797L14.713 27.9925L14.727 27.9736L14.7317 27.9535L14.7119 27.45C14.7095 27.4382 14.7014 27.4299 14.6932 27.4287ZM15.0012 27.2955L14.9849 27.2978L14.7702 27.4075L14.7585 27.4193L14.755 27.4323L14.776 27.9394L14.7819 27.9535L14.7912 27.963L15.0257 28.0715C15.0397 28.0762 15.0525 28.0715 15.0595 28.062L15.0642 28.0455L15.0245 27.3214C15.021 27.3073 15.0129 27.2978 15.0012 27.2955ZM14.167 27.2978C14.1617 27.2954 14.1558 27.2948 14.1501 27.2961C14.1444 27.2973 14.1393 27.3004 14.1355 27.3049L14.1285 27.3214L14.0889 28.0455C14.0889 28.0597 14.097 28.0691 14.1087 28.0738L14.1262 28.0715L14.3607 27.9618L14.3724 27.9524L14.3759 27.9394L14.3969 27.4323L14.3934 27.4181L14.3817 27.4063L14.167 27.2978Z"/>
</mask>
<path d="M14.6932 27.4287L14.8361 26.439L14.6813 26.4166L14.527 26.4427L14.6932 27.4287ZM14.6792 27.4311L14.513 26.445L14.3663 26.4697L14.2332 26.5361L14.6792 27.4311ZM14.5964 27.4724L14.7945 28.4525L14.9241 28.4264L15.0424 28.3674L14.5964 27.4724ZM14.573 27.4771L14.2956 28.4378L14.531 28.5058L14.7712 28.4573L14.573 27.4771ZM14.5567 27.4724L14.1006 28.3623L14.1865 28.4063L14.2792 28.4331L14.5567 27.4724ZM14.4739 27.4299L14.93 26.54L14.85 26.499L14.7641 26.473L14.4739 27.4299ZM14.4459 27.437L13.6743 26.8009L13.574 26.9225L13.516 27.0691L14.4459 27.437ZM14.4412 27.4488L13.5113 27.0809L13.4487 27.2393L13.442 27.4095L14.4412 27.4488ZM14.4214 27.9535L13.4221 27.9143L13.4166 28.056L13.4506 28.1936L14.4214 27.9535ZM14.4272 27.9771L13.4564 28.2172L13.5061 28.4181L13.6314 28.5827L14.4272 27.9771ZM14.4389 27.9925L13.6431 28.598L13.7336 28.717L13.855 28.8043L14.4389 27.9925ZM14.5602 28.0797L13.9763 28.8915L14.1241 28.9979L14.3 29.0453L14.5602 28.0797ZM14.5777 28.0844L14.3175 29.05L14.6099 29.1288L14.897 29.0321L14.5777 28.0844ZM14.5917 28.0797L14.911 29.0274L15.0535 28.9794L15.1756 28.8916L14.5917 28.0797ZM14.713 27.9925L15.2969 28.8043L15.4234 28.7134L15.5161 28.5883L14.713 27.9925ZM14.727 27.9736L15.5301 28.5694L15.6539 28.4026L15.701 28.2003L14.727 27.9736ZM14.7317 27.9535L15.7057 28.1802L15.7362 28.0489L15.7309 27.9142L14.7317 27.9535ZM14.7119 27.45L15.7111 27.4106L15.708 27.3325L15.6928 27.2559L14.7119 27.45ZM15.0012 27.2955L15.1994 26.3153L15.0297 26.281L14.8584 26.3057L15.0012 27.2955ZM14.9849 27.2978L14.842 26.3081L14.6777 26.3318L14.5299 26.4073L14.9849 27.2978ZM14.7702 27.4075L14.3152 26.517L14.1722 26.5901L14.0593 26.7042L14.7702 27.4075ZM14.7585 27.4193L14.0476 26.716L13.8618 26.9038L13.793 27.1589L14.7585 27.4193ZM14.755 27.4323L13.7895 27.1718L13.7495 27.3202L13.7559 27.4737L14.755 27.4323ZM14.776 27.9394L13.7769 27.9808L13.7842 28.1572L13.8515 28.3205L14.776 27.9394ZM14.7819 27.9535L13.8573 28.3347L13.9324 28.5168L14.0709 28.6568L14.7819 27.9535ZM14.7912 27.963L14.0802 28.6662L14.2073 28.7947L14.3713 28.8705L14.7912 27.963ZM15.0257 28.0715L14.6058 28.979L14.655 29.0018L14.7064 29.0191L15.0257 28.0715ZM15.0595 28.062L15.8626 28.6579L15.9719 28.5106L16.0218 28.334L15.0595 28.062ZM15.0642 28.0455L16.0265 28.3175L16.0718 28.1572L16.0627 27.9908L15.0642 28.0455ZM15.0245 27.3214L16.023 27.2667L16.0179 27.1727L15.9953 27.0813L15.0245 27.3214ZM14.167 27.2978L14.6181 26.4054L14.6014 26.3969L14.5844 26.3891L14.167 27.2978ZM14.1355 27.3049L13.3718 26.6594L13.274 26.7751L13.2149 26.9145L14.1355 27.3049ZM14.1285 27.3214L13.2079 26.9311L13.1396 27.0921L13.13 27.2667L14.1285 27.3214ZM14.0889 28.0455L13.0904 27.9908L13.0889 28.0182V28.0455H14.0889ZM14.1087 28.0738L13.7338 29.0009L13.9796 29.1003L14.2423 29.0649L14.1087 28.0738ZM14.1262 28.0715L14.2598 29.0625L14.4114 29.0421L14.5499 28.9773L14.1262 28.0715ZM14.3607 27.9618L14.7844 28.8676L14.8947 28.816L14.9895 28.7394L14.3607 27.9618ZM14.3724 27.9524L15.0011 28.73L15.2534 28.526L15.3379 28.2128L14.3724 27.9524ZM14.3759 27.9394L15.3414 28.1998L15.3704 28.0922L15.375 27.9808L14.3759 27.9394ZM14.3969 27.4323L15.396 27.4737L15.4019 27.3309L15.3676 27.1922L14.3969 27.4323ZM14.3934 27.4181L15.3641 27.178L15.298 26.9106L15.1043 26.7148L14.3934 27.4181ZM14.3817 27.4063L15.0926 26.7031L14.9781 26.5873L14.8328 26.5139L14.3817 27.4063ZM14.527 26.4427L14.513 26.445L14.8454 28.4172L14.8594 28.4148L14.527 26.4427ZM14.2332 26.5361L14.1504 26.5773L15.0424 28.3674L15.1252 28.3261L14.2332 26.5361ZM14.3982 26.4922L14.3749 26.4969L14.7712 28.4573L14.7945 28.4525L14.3982 26.4922ZM14.8505 26.5164L14.8342 26.5116L14.2792 28.4331L14.2956 28.4378L14.8505 26.5164ZM15.0128 26.5825L14.93 26.54L14.0178 28.3198L14.1006 28.3623L15.0128 26.5825ZM14.7641 26.473C14.4045 26.3639 13.9614 26.4526 13.6743 26.8009L15.2175 28.0731C14.942 28.4072 14.5199 28.4889 14.1837 28.3869L14.7641 26.473ZM13.516 27.0691L13.5113 27.0809L15.3711 27.8167L15.3757 27.8049L13.516 27.0691ZM13.442 27.4095L13.4221 27.9143L15.4206 27.9928L15.4404 27.4881L13.442 27.4095ZM13.4506 28.1936L13.4564 28.2172L15.398 27.737L15.3921 27.7135L13.4506 28.1936ZM13.6314 28.5827L13.6431 28.598L15.2347 27.3869L15.223 27.3716L13.6314 28.5827ZM13.855 28.8043L13.9763 28.8915L15.1441 27.2679L15.0228 27.1806L13.855 28.8043ZM14.3 29.0453L14.3175 29.05L14.8379 27.1189L14.8204 27.1142L14.3 29.0453ZM14.897 29.0321L14.911 29.0274L14.2724 27.1321L14.2584 27.1368L14.897 29.0321ZM15.1756 28.8916L15.2969 28.8043L14.1291 27.1806L14.0078 27.2679L15.1756 28.8916ZM15.5161 28.5883L15.5301 28.5694L13.9239 27.3777L13.9099 27.3966L15.5161 28.5883ZM15.701 28.2003L15.7057 28.1802L13.7577 27.7268L13.7531 27.7469L15.701 28.2003ZM15.7309 27.9142L15.7111 27.4106L13.7126 27.4893L13.7325 27.9929L15.7309 27.9142ZM15.6928 27.2559C15.6325 26.9508 15.3759 26.517 14.8361 26.439L14.5503 28.4185C14.2783 28.3792 14.0831 28.238 13.9652 28.1085C13.8417 27.9729 13.7638 27.8106 13.7309 27.6441L15.6928 27.2559ZM14.8584 26.3057L14.842 26.3081L15.1277 28.2876L15.144 28.2852L14.8584 26.3057ZM14.5299 26.4073L14.3152 26.517L15.2252 28.298L15.4398 28.1883L14.5299 26.4073ZM14.0593 26.7042L14.0476 26.716L15.4694 28.1226L15.4811 28.1108L14.0593 26.7042ZM13.793 27.1589L13.7895 27.1718L15.7205 27.6927L15.724 27.6797L13.793 27.1589ZM13.7559 27.4737L13.7769 27.9808L15.7752 27.898L15.7542 27.3909L13.7559 27.4737ZM13.8515 28.3205L13.8573 28.3347L15.7064 27.5724L15.7006 27.5583L13.8515 28.3205ZM14.0709 28.6568L14.0802 28.6662L15.5022 27.2597L15.4928 27.2503L14.0709 28.6568ZM14.3713 28.8705L14.6058 28.979L15.4456 27.1639L15.2111 27.0554L14.3713 28.8705ZM14.7064 29.0191C15.1166 29.1573 15.5882 29.0278 15.8626 28.6579L14.2564 27.4662C14.5169 27.1152 14.9628 26.995 15.345 27.1238L14.7064 29.0191ZM16.0218 28.334L16.0265 28.3175L14.1019 27.7736L14.0972 27.7901L16.0218 28.334ZM16.0627 27.9908L16.023 27.2667L14.026 27.3761L14.0657 28.1002L16.0627 27.9908ZM15.9953 27.0813C15.9309 26.821 15.7049 26.4175 15.1994 26.3153L14.803 28.2757C14.3208 28.1782 14.1112 27.7935 14.0538 27.5615L15.9953 27.0813ZM14.5844 26.3891C14.3801 26.2953 14.1505 26.271 13.9309 26.3204L14.3693 28.2717C14.1611 28.3185 13.9434 28.2955 13.7497 28.2066L14.5844 26.3891ZM13.9309 26.3204C13.7114 26.3697 13.5154 26.4894 13.3718 26.6594L14.8993 27.9504C14.7632 28.1114 14.5775 28.225 14.3693 28.2717L13.9309 26.3204ZM13.2149 26.9145L13.2079 26.9311L15.0492 27.7118L15.0562 27.6953L13.2149 26.9145ZM13.13 27.2667L13.0904 27.9908L15.0874 28.1002L15.127 27.3761L13.13 27.2667ZM13.0889 28.0455C13.0889 28.5372 13.4137 28.8715 13.7338 29.0009L14.4836 27.1467C14.6155 27.2001 14.7722 27.2984 14.8975 27.4674C15.0286 27.644 15.0889 27.8495 15.0889 28.0455H13.0889ZM14.2423 29.0649L14.2598 29.0625L13.9926 27.0804L13.9751 27.0828L14.2423 29.0649ZM14.5499 28.9773L14.7844 28.8676L13.937 27.056L13.7025 27.1657L14.5499 28.9773ZM14.9895 28.7394L15.0011 28.73L13.7436 27.1748L13.7319 27.1842L14.9895 28.7394ZM15.3379 28.2128L15.3414 28.1998L13.4104 27.679L13.4069 27.6919L15.3379 28.2128ZM15.375 27.9808L15.396 27.4737L13.3977 27.3909L13.3767 27.898L15.375 27.9808ZM15.3676 27.1922L15.3641 27.178L13.4226 27.6583L13.4261 27.6724L15.3676 27.1922ZM15.1043 26.7148L15.0926 26.7031L13.6708 28.1096L13.6825 28.1214L15.1043 26.7148ZM14.8328 26.5139L14.6181 26.4054L13.7159 28.1903L13.9306 28.2988L14.8328 26.5139Z" fill="#177DBA" mask="url(#path-1-inside-1_0_1086)"/>
<mask id="path-3-inside-2_0_1086" fill="white">
<path d="M9.4221 8.56197L9.53294 8.65985L19.4333 18.6664C19.563 18.7974 19.6604 18.9575 19.7175 19.1337C19.7745 19.3099 19.7897 19.4972 19.7618 19.6805C19.7338 19.8637 19.6635 20.0377 19.5566 20.1883C19.4496 20.339 19.3091 20.462 19.1463 20.5474L19.0109 20.6064L6.8951 25.1196C4.61777 25.9687 2.39994 23.8047 3.09177 21.5062L3.15011 21.334L7.61377 9.08676C7.67278 8.92453 7.76635 8.77739 7.88786 8.65577C8.00937 8.53414 8.15584 8.441 8.3169 8.38294C8.47797 8.32488 8.64969 8.30332 8.81991 8.31979C8.99013 8.33626 9.15469 8.39035 9.30194 8.47823L9.4221 8.56197ZM19.9583 13.6849C21.0211 13.7415 22.4783 13.968 23.7453 14.7369C24.0021 14.8908 24.1908 15.1384 24.2725 15.4288C24.3542 15.7191 24.3226 16.03 24.1843 16.2975C24.046 16.5651 23.8115 16.7688 23.529 16.8668C23.2466 16.9648 22.9378 16.9496 22.6661 16.8243L22.5448 16.7594C21.7491 16.2759 20.7318 16.0872 19.8358 16.04C19.4666 16.0184 19.0964 16.02 18.7274 16.0448L18.3588 16.0813C18.0544 16.121 17.7469 16.0379 17.5027 15.85C17.2586 15.6621 17.0975 15.3845 17.0544 15.0774C17.0112 14.7703 17.0896 14.4584 17.2724 14.2092C17.4551 13.96 17.7277 13.7937 18.0309 13.7463C18.6699 13.6628 19.3153 13.6419 19.9583 13.6838M22.3208 10.3982C22.618 10.3988 22.9038 10.5141 23.1198 10.7205C23.3358 10.927 23.4657 11.209 23.483 11.509C23.5003 11.8089 23.4036 12.1043 23.2128 12.3346C23.0219 12.565 22.7513 12.7131 22.4561 12.7486L22.3208 12.7568H21.4948C21.1975 12.7562 20.9117 12.6409 20.6957 12.4344C20.4797 12.228 20.3498 11.946 20.3325 11.646C20.3152 11.346 20.4119 11.0507 20.6028 10.8203C20.7936 10.59 21.0643 10.4419 21.3594 10.4064L21.4948 10.3982H22.3208ZM18.6084 9.49363C18.8093 9.6967 18.93 9.96688 18.9478 10.2535C18.9656 10.5401 18.8794 10.8234 18.7053 11.0503L18.6084 11.1612L17.3706 12.4124C17.1607 12.624 16.8789 12.7468 16.5827 12.7559C16.2864 12.765 15.9978 12.6599 15.7754 12.4617C15.5531 12.2635 15.4137 11.9872 15.3856 11.689C15.3575 11.3907 15.4428 11.0928 15.6241 10.8557L15.7209 10.7449L16.9576 9.49481C17.066 9.38516 17.1946 9.29817 17.3363 9.23883C17.4779 9.17948 17.6297 9.14893 17.783 9.14893C17.9363 9.14893 18.0882 9.17948 18.2298 9.23883C18.3714 9.29817 18.5001 9.38398 18.6084 9.49363ZM15.5903 3.28451C16.1129 4.87187 15.8329 6.61019 15.5063 7.82489C15.3099 8.58219 15.0403 9.3181 14.7013 10.022C14.5631 10.3019 14.3206 10.5149 14.0271 10.6141C13.7336 10.7133 13.4131 10.6905 13.1362 10.5509C12.8593 10.4112 12.6486 10.1661 12.5504 9.8694C12.4523 9.57271 12.4748 9.24877 12.6129 8.96883C12.8835 8.40341 13.0984 7.81248 13.2546 7.20457C13.5194 6.22337 13.6524 5.15845 13.4483 4.28575L13.3771 4.03102C13.3263 3.88353 13.3049 3.7273 13.3143 3.57141C13.3236 3.41551 13.3636 3.26305 13.4317 3.12287C13.4998 2.98269 13.5948 2.85759 13.7112 2.75483C13.8276 2.65207 13.9629 2.5737 14.1095 2.52426C14.2561 2.47482 14.4109 2.45531 14.565 2.46685C14.7191 2.47838 14.8694 2.52075 15.0071 2.59147C15.1449 2.6622 15.2674 2.75989 15.3675 2.87886C15.4676 2.99783 15.5433 3.13571 15.5903 3.28451ZM21.9078 6.15969C22.1265 6.38085 22.2494 6.68076 22.2494 6.99347C22.2494 7.30618 22.1265 7.60609 21.9078 7.82725L21.0829 8.66103C20.9753 8.77367 20.8466 8.86351 20.7042 8.92532C20.5619 8.98712 20.4088 9.01966 20.2539 9.02102C20.099 9.02238 19.9454 8.99254 19.802 8.93324C19.6586 8.87394 19.5284 8.78638 19.4188 8.67565C19.3093 8.56492 19.2226 8.43324 19.164 8.28831C19.1053 8.14338 19.0758 7.98808 19.0771 7.83149C19.0785 7.6749 19.1107 7.52015 19.1718 7.37627C19.233 7.23239 19.3218 7.10226 19.4333 6.99347L20.2581 6.15969C20.4769 5.9386 20.7736 5.8144 21.0829 5.8144C21.3923 5.8144 21.689 5.9386 21.9078 6.15969Z"/>
</mask>
<path d="M9.4221 8.56197L10.0841 7.81243L10.041 7.77437L9.9938 7.7415L9.4221 8.56197ZM9.53294 8.65985L10.2438 7.95653L10.2201 7.9326L10.1949 7.91031L9.53294 8.65985ZM19.4333 18.6664L18.7224 19.3697L18.7227 19.37L19.4333 18.6664ZM19.1463 20.5474L19.5457 21.4642L19.5789 21.4497L19.6109 21.4329L19.1463 20.5474ZM19.0109 20.6064L19.36 21.5435L19.3855 21.534L19.4104 21.5231L19.0109 20.6064ZM6.8951 25.1196L6.54603 24.1825L6.54575 24.1826L6.8951 25.1196ZM3.09177 21.5062L2.14465 21.1853L2.13915 21.2015L2.13421 21.218L3.09177 21.5062ZM3.15011 21.334L2.21056 20.9916L2.20665 21.0023L2.20298 21.0131L3.15011 21.334ZM7.61377 9.08676L8.55332 9.42919L8.55353 9.4286L7.61377 9.08676ZM9.30194 8.47823L9.87363 7.65777L9.84471 7.63762L9.81444 7.61955L9.30194 8.47823ZM23.7453 14.7369L23.2264 15.5918L23.2312 15.5947L23.7453 14.7369ZM22.6661 16.8243L22.1947 17.7062L22.2206 17.7201L22.2474 17.7324L22.6661 16.8243ZM22.5448 16.7594L22.0254 17.614L22.049 17.6283L22.0733 17.6413L22.5448 16.7594ZM19.8358 16.04L19.7774 17.0383L19.7832 17.0387L19.8358 16.04ZM18.7274 16.0448L18.6606 15.047L18.6446 15.0481L18.6288 15.0496L18.7274 16.0448ZM18.3588 16.0813L18.2601 15.0862L18.2447 15.0877L18.2294 15.0897L18.3588 16.0813ZM18.0309 13.7463L17.9015 12.7547L17.8889 12.7563L17.8763 12.7583L18.0309 13.7463ZM22.3208 10.3982L22.3229 9.39817H22.3208V10.3982ZM22.4561 12.7486L22.517 13.7467L22.5463 13.7449L22.5755 13.7414L22.4561 12.7486ZM22.3208 12.7568V13.7568H22.3512L22.3817 13.755L22.3208 12.7568ZM21.4948 12.7568L21.4927 13.7568H21.4948V12.7568ZM21.3594 10.4064L21.2985 9.40828L21.2692 9.41007L21.2401 9.41357L21.3594 10.4064ZM21.4948 10.3982V9.39817H21.4643L21.4339 9.40002L21.4948 10.3982ZM18.6084 9.49363L17.8971 10.1965L17.8975 10.1969L18.6084 9.49363ZM18.7053 11.0503L19.4584 11.7082L19.4793 11.6843L19.4986 11.6591L18.7053 11.0503ZM18.6084 11.1612L19.3193 11.8645L19.3412 11.8424L19.3616 11.8191L18.6084 11.1612ZM17.3706 12.4124L18.0803 13.1169L18.0815 13.1157L17.3706 12.4124ZM15.6241 10.8557L14.871 10.1979L14.8496 10.2224L14.8298 10.2482L15.6241 10.8557ZM15.7209 10.7449L15.01 10.0416L14.9882 10.0637L14.9678 10.087L15.7209 10.7449ZM16.9576 9.49481L17.6685 10.1981L17.6689 10.1977L16.9576 9.49481ZM17.783 9.14893V10.1489V9.14893ZM15.5903 3.28451L14.6366 3.5855L14.6404 3.59726L15.5903 3.28451ZM15.5063 7.82489L14.5405 7.56518L14.5383 7.57394L15.5063 7.82489ZM14.7013 10.022L15.598 10.4646L15.6022 10.4559L14.7013 10.022ZM13.1362 10.5509L12.6859 11.4438L13.1362 10.5509ZM12.6129 8.96883L13.5097 9.41143L13.515 9.40044L12.6129 8.96883ZM13.2546 7.20457L12.2891 6.94397L12.2861 6.9557L13.2546 7.20457ZM13.4483 4.28575L14.422 4.05795L14.4171 4.0372L14.4114 4.01667L13.4483 4.28575ZM13.3771 4.03102L14.3402 3.76194L14.3322 3.73326L14.3225 3.70511L13.3771 4.03102ZM21.9078 6.15969L22.6188 5.45652L22.6186 5.4563L21.9078 6.15969ZM21.9078 7.82725L22.6187 8.53053L22.6188 8.53043L21.9078 7.82725ZM21.0829 8.66103L20.372 7.95775L20.3659 7.96392L20.3599 7.9702L21.0829 8.66103ZM19.4333 6.99347L20.1318 7.709L20.1381 7.70293L20.1442 7.69675L19.4333 6.99347ZM20.2581 6.15969L19.5473 5.4563L19.5472 5.45641L20.2581 6.15969ZM21.0829 5.8144V6.8144V5.8144ZM8.76014 9.3115L8.87097 9.40939L10.1949 7.91031L10.0841 7.81243L8.76014 9.3115ZM8.82207 9.36317L18.7224 19.3697L20.1441 17.9631L10.2438 7.95653L8.82207 9.36317ZM18.7227 19.37C18.7419 19.3894 18.7571 19.4139 18.7661 19.4419L20.6688 18.8256C20.5637 18.5012 20.3842 18.2054 20.1438 17.9627L18.7227 19.37ZM18.7661 19.4419C18.7752 19.4699 18.7777 19.5001 18.7732 19.5296L20.7503 19.8313C20.8017 19.4944 20.7739 19.1499 20.6688 18.8256L18.7661 19.4419ZM18.7732 19.5296C18.7687 19.5592 18.7575 19.5865 18.7412 19.6094L20.372 20.7672C20.5695 20.4889 20.6989 20.1682 20.7503 19.8313L18.7732 19.5296ZM18.7412 19.6094C18.7249 19.6323 18.7043 19.65 18.6816 19.6619L19.6109 21.4329C19.9138 21.2739 20.1743 21.0456 20.372 20.7672L18.7412 19.6094ZM18.7468 19.6306L18.6115 19.6896L19.4104 21.5231L19.5457 21.4642L18.7468 19.6306ZM18.6619 19.6693L6.54603 24.1825L7.24418 26.0567L19.36 21.5435L18.6619 19.6693ZM6.54575 24.1826C5.07554 24.7308 3.58571 23.3347 4.04934 21.7944L2.13421 21.218C1.21417 24.2746 4.16 27.2067 7.24446 26.0566L6.54575 24.1826ZM4.03889 21.8271L4.09723 21.6549L2.20298 21.0131L2.14465 21.1853L4.03889 21.8271ZM4.08965 21.6764L8.55332 9.42919L6.67423 8.74433L2.21056 20.9916L4.08965 21.6764ZM8.55353 9.4286C8.56288 9.40291 8.57739 9.38047 8.59531 9.36252L7.18041 7.94901C6.95532 8.17431 6.78269 8.44615 6.67401 8.74493L8.55353 9.4286ZM8.59531 9.36252C8.61321 9.34461 8.63405 9.3316 8.65601 9.32369L7.97779 7.44219C7.67762 7.5504 7.40552 7.72367 7.18041 7.94901L8.59531 9.36252ZM8.65601 9.32369C8.67794 9.31578 8.70096 9.31295 8.72362 9.31515L8.9162 7.32444C8.59842 7.2937 8.27799 7.33398 7.97779 7.44219L8.65601 9.32369ZM8.72362 9.31515C8.74629 9.31734 8.76876 9.32458 8.78943 9.33692L9.81444 7.61955C9.54062 7.45612 9.23397 7.35518 8.9162 7.32444L8.72362 9.31515ZM8.73024 9.2987L8.85041 9.38243L9.9938 7.7415L9.87363 7.65777L8.73024 9.2987ZM19.9051 14.6835C20.8958 14.7363 22.1627 14.9462 23.2265 15.5918L24.2641 13.882C22.7938 12.9897 21.1464 12.7468 20.0115 12.6863L19.9051 14.6835ZM23.2312 15.5947C23.2674 15.6163 23.2968 15.653 23.3098 15.6996L25.2351 15.158C25.0849 14.6239 24.7369 14.1653 24.2593 13.8791L23.2312 15.5947ZM23.3098 15.6996C23.323 15.7463 23.3177 15.7963 23.296 15.8383L25.0726 16.7568C25.3275 16.2638 25.3853 15.6919 25.2351 15.158L23.3098 15.6996ZM23.296 15.8383C23.2744 15.88 23.2395 15.9087 23.2013 15.922L23.8568 17.8115C24.3834 17.6288 24.8175 17.2501 25.0726 16.7568L23.296 15.8383ZM23.2013 15.922C23.1633 15.9352 23.122 15.9333 23.0848 15.9162L22.2474 17.7324C22.7536 17.9658 23.33 17.9943 23.8568 17.8115L23.2013 15.922ZM23.1375 15.9424L23.0162 15.8775L22.0733 17.6413L22.1947 17.7062L23.1375 15.9424ZM23.0641 15.9048C22.0648 15.2976 20.8568 15.0924 19.8883 15.0414L19.7832 17.0387C20.6067 17.082 21.4334 17.2542 22.0254 17.614L23.0641 15.9048ZM19.8942 15.0417C19.4832 15.0177 19.0713 15.0195 18.6606 15.047L18.7943 17.0425C19.1216 17.0206 19.4499 17.0192 19.7774 17.0383L19.8942 15.0417ZM18.6288 15.0496L18.2601 15.0862L18.4575 17.0764L18.8261 17.0399L18.6288 15.0496ZM18.2294 15.0897C18.1893 15.0949 18.1474 15.0843 18.1126 15.0575L16.8928 16.6425C17.3463 16.9915 17.9196 17.1471 18.4881 17.0729L18.2294 15.0897ZM18.1126 15.0575C18.0774 15.0304 18.0516 14.9882 18.0446 14.9384L16.0641 15.2164C16.1433 15.7808 16.4397 16.2937 16.8928 16.6425L18.1126 15.0575ZM18.0446 14.9384C18.0376 14.8884 18.0507 14.8388 18.0786 14.8007L16.4661 13.6177C16.1284 14.0779 15.9849 14.6522 16.0641 15.2164L18.0446 14.9384ZM18.0786 14.8007C18.1063 14.763 18.1454 14.7405 18.1856 14.7342L17.8763 12.7583C17.31 12.8469 16.804 13.1571 16.4661 13.6177L18.0786 14.8007ZM18.1604 14.7378C18.7349 14.6628 19.3152 14.644 19.8933 14.6816L20.0232 12.6859C19.3154 12.6398 18.6049 12.6628 17.9015 12.7547L18.1604 14.7378ZM22.3187 11.3982C22.3578 11.3982 22.3974 11.4133 22.4289 11.4435L23.8108 9.99761C23.4103 9.61487 22.8783 9.39935 22.3229 9.39817L22.3187 11.3982ZM22.4289 11.4435C22.4608 11.4739 22.4819 11.5176 22.4847 11.5664L24.4814 11.4515C24.4496 10.9004 24.2109 10.3801 23.8108 9.99761L22.4289 11.4435ZM22.4847 11.5664C22.4875 11.6153 22.4715 11.6619 22.4427 11.6967L23.9829 12.9726C24.3357 12.5466 24.5131 12.0026 24.4814 11.4515L22.4847 11.5664ZM22.4427 11.6967C22.4142 11.7312 22.3758 11.751 22.3367 11.7557L22.5755 13.7414C23.1268 13.6751 23.6297 13.3989 23.9829 12.9726L22.4427 11.6967ZM22.3952 11.7504L22.2599 11.7587L22.3817 13.755L22.517 13.7467L22.3952 11.7504ZM22.3208 11.7568H21.4948V13.7568H22.3208V11.7568ZM21.4969 11.7568C21.4577 11.7567 21.4181 11.7416 21.3866 11.7115L20.0048 13.1574C20.4052 13.5401 20.9373 13.7556 21.4927 13.7568L21.4969 11.7568ZM21.3866 11.7115C21.3548 11.6811 21.3337 11.6374 21.3309 11.5885L19.3342 11.7035C19.3659 12.2546 19.6046 12.7749 20.0048 13.1574L21.3866 11.7115ZM21.3309 11.5885C21.3281 11.5396 21.344 11.4931 21.3728 11.4583L19.8327 10.1824C19.4798 10.6083 19.3024 11.1524 19.3342 11.7035L21.3309 11.5885ZM21.3728 11.4583C21.4014 11.4238 21.4397 11.404 21.4788 11.3993L21.2401 9.41357C20.6888 9.47985 20.1858 9.75609 19.8327 10.1824L21.3728 11.4583ZM21.4203 11.4046L21.5557 11.3963L21.4339 9.40002L21.2985 9.40828L21.4203 11.4046ZM21.4948 11.3982H22.3208V9.39817H21.4948V11.3982ZM17.8975 10.1969C17.9273 10.227 17.9468 10.269 17.9497 10.3156L19.9459 10.1914C19.9131 9.66481 19.6914 9.16642 19.3194 8.79038L17.8975 10.1969ZM17.9497 10.3156C17.9526 10.3622 17.9384 10.407 17.9119 10.4415L19.4986 11.6591C19.8204 11.2398 19.9786 10.718 19.9459 10.1914L17.9497 10.3156ZM17.9521 10.3925L17.8553 10.5033L19.3616 11.8191L19.4584 11.7082L17.9521 10.3925ZM17.8975 10.4579L16.6597 11.7092L18.0815 13.1157L19.3193 11.8645L17.8975 10.4579ZM16.6609 11.708C16.6301 11.739 16.5908 11.7552 16.5518 11.7564L16.6135 13.7554C17.167 13.7383 17.6912 13.5089 18.0803 13.1169L16.6609 11.708ZM16.5518 11.7564C16.5128 11.7576 16.473 11.7439 16.4408 11.7152L15.1101 13.2082C15.5225 13.5758 16.06 13.7725 16.6135 13.7554L16.5518 11.7564ZM16.4408 11.7152C16.4083 11.6862 16.3858 11.6436 16.3812 11.5951L14.39 11.7828C14.4417 12.3309 14.698 12.8409 15.1101 13.2082L16.4408 11.7152ZM16.3812 11.5951C16.3767 11.5466 16.3908 11.4994 16.4184 11.4633L14.8298 10.2482C14.4948 10.6862 14.3384 11.2348 14.39 11.7828L16.3812 11.5951ZM16.3772 11.5136L16.4741 11.4028L14.9678 10.087L14.871 10.1979L16.3772 11.5136ZM16.4318 11.4482L17.6685 10.1981L16.2467 8.79153L15.01 10.0416L16.4318 11.4482ZM17.6689 10.1977C17.6849 10.1815 17.7033 10.1693 17.7227 10.1611L16.9498 8.31653C16.686 8.42707 16.447 8.58879 16.2463 8.79192L17.6689 10.1977ZM17.7227 10.1611C17.7422 10.153 17.7626 10.1489 17.783 10.1489V8.14893C17.4968 8.14893 17.2136 8.20598 16.9498 8.31653L17.7227 10.1611ZM17.783 10.1489C17.8034 10.1489 17.8239 10.153 17.8433 10.1611L18.6163 8.31653C18.3524 8.20598 18.0693 8.14893 17.783 8.14893V10.1489ZM17.8433 10.1611C17.8668 10.171 17.8842 10.1834 17.8971 10.1965L19.3197 8.79074C19.116 8.58454 18.876 8.42538 18.6163 8.31653L17.8433 10.1611ZM14.6404 3.59726C15.0702 4.90262 14.8519 6.40742 14.5406 7.56519L16.472 8.08459C16.8139 6.81296 17.1556 4.84112 16.5401 2.97176L14.6404 3.59726ZM14.5383 7.57394C14.3583 8.26828 14.1111 8.94289 13.8003 9.588L15.6022 10.4559C15.9695 9.69331 16.2616 8.89609 16.4743 8.07584L14.5383 7.57394ZM13.8045 9.5794C13.7829 9.62322 13.7467 9.65328 13.7069 9.66672L14.3473 11.5614C14.8945 11.3765 15.3433 10.9806 15.598 10.4645L13.8045 9.5794ZM13.7069 9.66672C13.6675 9.68005 13.6245 9.6772 13.5865 9.658L12.6859 11.4438C13.2017 11.7039 13.7997 11.7465 14.3473 11.5614L13.7069 9.66672ZM13.5865 9.658C13.548 9.63861 13.5155 9.60279 13.4998 9.55539L11.601 10.1834C11.7816 10.7294 12.1705 11.1839 12.6859 11.4438L13.5865 9.658ZM13.4998 9.55539C13.4841 9.50773 13.4879 9.45556 13.5097 9.4114L11.7162 8.52627C11.4617 9.04197 11.4205 9.63769 11.601 10.1834L13.4998 9.55539ZM13.515 9.40044C13.8136 8.77633 14.0508 8.1242 14.2231 7.45344L12.2861 6.9557C12.146 7.50077 11.9533 8.03049 11.7109 8.53722L13.515 9.40044ZM14.2201 7.46515C14.5017 6.42156 14.6815 5.16727 14.422 4.05795L12.4746 4.51355C12.6234 5.14962 12.5371 6.02519 12.2892 6.94398L14.2201 7.46515ZM14.4114 4.01667L14.3402 3.76194L12.414 4.3001L12.4852 4.55483L14.4114 4.01667ZM14.3225 3.70511C14.3144 3.6817 14.311 3.65661 14.3125 3.63142L12.3161 3.5114C12.2988 3.798 12.3381 4.08536 12.4317 4.35693L14.3225 3.70511ZM14.3125 3.63142C14.314 3.60623 14.3204 3.58195 14.3311 3.56004L12.5323 2.6857C12.4067 2.94414 12.3333 3.22479 12.3161 3.5114L14.3125 3.63142ZM14.3311 3.56004C14.3417 3.53815 14.3562 3.51935 14.3732 3.50437L13.0492 2.00529C12.8335 2.19583 12.658 2.42723 12.5323 2.6857L14.3311 3.56004ZM14.3732 3.50437C14.3901 3.48942 14.4092 3.47853 14.4291 3.47181L13.7899 1.57671C13.5167 1.66886 13.265 1.81472 13.0492 2.00529L14.3732 3.50437ZM14.4291 3.47181C14.449 3.46509 14.4698 3.46252 14.4903 3.46405L14.6397 1.46964C14.352 1.4481 14.0631 1.48456 13.7899 1.57671L14.4291 3.47181ZM14.4903 3.46405C14.5108 3.46559 14.5312 3.47125 14.5504 3.48108L15.4639 1.70187C15.2075 1.57024 14.9273 1.49118 14.6397 1.46964L14.4903 3.46405ZM14.5504 3.48108C14.5695 3.49092 14.5873 3.50488 14.6023 3.5227L16.1326 2.23501C15.9474 2.01489 15.7202 1.83349 15.4639 1.70187L14.5504 3.48108ZM14.6023 3.5227C14.6173 3.54054 14.6292 3.56181 14.6366 3.58548L16.5439 2.98354C16.4575 2.70961 16.3178 2.45511 16.1326 2.23501L14.6023 3.5227ZM21.1968 6.86287C21.2292 6.89568 21.2494 6.94246 21.2494 6.99347H23.2494C23.2494 6.41905 23.0238 5.86601 22.6188 5.45652L21.1968 6.86287ZM21.2494 6.99347C21.2494 7.04448 21.2292 7.09126 21.1968 7.12407L22.6188 8.53043C23.0238 8.12093 23.2494 7.56789 23.2494 6.99347H21.2494ZM21.1969 7.12397L20.372 7.95775L21.7938 9.36431L22.6187 8.53053L21.1969 7.12397ZM20.3599 7.9702C20.344 7.98687 20.3255 7.99955 20.3059 8.00806L21.1025 9.84257C21.3676 9.72747 21.6066 9.56046 21.806 9.35185L20.3599 7.9702ZM20.3059 8.00806C20.2864 8.01656 20.2657 8.02087 20.2451 8.02106L20.2627 10.021C20.5519 10.0184 20.8374 9.95769 21.1025 9.84257L20.3059 8.00806ZM20.2451 8.02106C20.2245 8.02124 20.2038 8.01728 20.1842 8.00915L19.4198 9.85733C19.6869 9.96779 19.9735 10.0235 20.2627 10.021L20.2451 8.02106ZM20.1842 8.00915C20.1645 8.00101 20.1459 7.98869 20.1297 7.97236L18.7079 9.37893C18.9108 9.58406 19.1527 9.74688 19.4198 9.85733L20.1842 8.00915ZM20.1297 7.97236C20.1135 7.95601 20.1002 7.93597 20.0909 7.91313L18.237 8.66349C18.3451 8.93052 18.505 9.17382 18.7079 9.37893L20.1297 7.97236ZM20.0909 7.91313C20.0817 7.89027 20.0769 7.86541 20.0771 7.84009L18.0772 7.8229C18.0747 8.11076 18.129 8.39648 18.237 8.66349L20.0909 7.91313ZM20.0771 7.84009C20.0773 7.81478 20.0825 7.79003 20.0922 7.76738L18.2515 6.98516C18.1388 7.25028 18.0797 7.53503 18.0772 7.8229L20.0771 7.84009ZM20.0922 7.76738C20.1018 7.74475 20.1155 7.72501 20.1318 7.709L18.7347 6.27794C18.5282 6.47951 18.3641 6.72003 18.2515 6.98516L20.0922 7.76738ZM20.1442 7.69675L20.969 6.86297L19.5472 5.45641L18.7224 6.29019L20.1442 7.69675ZM20.9689 6.86308C21.001 6.83064 21.0422 6.8144 21.0829 6.8144V4.8144C20.5049 4.8144 19.9528 5.04657 19.5473 5.4563L20.9689 6.86308ZM21.0829 6.8144C21.1236 6.8144 21.1649 6.83064 21.197 6.86308L22.6186 5.4563C22.2131 5.04657 21.661 4.8144 21.0829 4.8144V6.8144Z" fill="#177DBA" mask="url(#path-3-inside-2_0_1086)"/>
</svg>
