<svg width="21" height="21" viewBox="0 0 21 21" fill="none" xmlns="http://www.w3.org/2000/svg">
<path d="M15.2499 10.9749C15.5122 10.9749 15.7249 10.7622 15.7249 10.4999C15.7249 10.2376 15.5122 10.0249 15.2499 10.0249C14.9876 10.0249 14.7749 10.2376 14.7749 10.4999C14.7749 10.7622 14.9876 10.9749 15.2499 10.9749Z" fill="#177DBA" stroke="#177DBA" stroke-linecap="round" stroke-linejoin="round"/>
<path d="M10.4999 10.9749C10.7622 10.9749 10.9749 10.7622 10.9749 10.4999C10.9749 10.2376 10.7622 10.0249 10.4999 10.0249C10.2376 10.0249 10.0249 10.2376 10.0249 10.4999C10.0249 10.7622 10.2376 10.9749 10.4999 10.9749Z" fill="#177DBA" stroke="#177DBA" stroke-linecap="round" stroke-linejoin="round"/>
<path d="M5.7499 10.9749C6.01224 10.9749 6.2249 10.7622 6.2249 10.4999C6.2249 10.2376 6.01224 10.0249 5.7499 10.0249C5.48757 10.0249 5.2749 10.2376 5.2749 10.4999C5.2749 10.7622 5.48757 10.9749 5.7499 10.9749Z" fill="#177DBA" stroke="#177DBA" stroke-linecap="round" stroke-linejoin="round"/>
<path d="M10.5 20C15.7467 20 20 15.7467 20 10.5C20 5.25329 15.7467 1 10.5 1C5.25329 1 1 5.25329 1 10.5C1 12.2303 1.46262 13.8526 2.27093 15.25L1.475 19.525L5.75 18.7291C7.14733 19.5374 8.76967 20 10.5 20Z" stroke="#177DBA" stroke-linecap="round" stroke-linejoin="round"/>
</svg>
