<svg width="24" height="23" viewBox="0 0 24 23" fill="none" xmlns="http://www.w3.org/2000/svg">
<path d="M20.7999 9.8C20.7999 4.93989 16.8601 1 12 1C7.13984 1 3.19995 4.93989 3.19995 9.8" stroke="#177DBA" stroke-linecap="round" stroke-linejoin="round"/>
<path d="M1 14.6823V12.6179C1 11.6083 1.68705 10.7284 2.66642 10.4835L4.57993 10.0051C4.99649 9.90098 5.4 10.216 5.4 10.6455V16.6548C5.4 17.0842 4.99649 17.3992 4.57993 17.2951L2.66642 16.8167C1.68705 16.5718 1 15.6919 1 14.6823Z" stroke="#177DBA"/>
<path d="M23.0001 14.6823V12.6179C23.0001 11.6083 22.313 10.7284 21.3337 10.4835L19.4201 10.0051C19.0036 9.90098 18.6001 10.216 18.6001 10.6455V16.6548C18.6001 17.0842 19.0036 17.3992 19.4201 17.2951L21.3337 16.8167C22.313 16.5718 23.0001 15.6919 23.0001 14.6823Z" stroke="#177DBA"/>
<path d="M20.8 17.5V18.05C20.8 19.2651 19.8151 20.25 18.6 20.25H14.75" stroke="#177DBA"/>
<path d="M13.65 21.9001H10.35C9.43868 21.9001 8.69995 21.1613 8.69995 20.2501C8.69995 19.3389 9.43868 18.6001 10.35 18.6001H13.65C14.5612 18.6001 15.3 19.3389 15.3 20.2501C15.3 21.1613 14.5612 21.9001 13.65 21.9001Z" stroke="#177DBA"/>
</svg>
