<svg width="28" height="29" viewBox="0 0 28 29" fill="none" xmlns="http://www.w3.org/2000/svg">
<path d="M14.0005 19.7811L14.2608 19.9403L19.1024 22.9004L19.1026 22.9005C19.5966 23.2027 20.2304 22.7648 20.0927 22.1656L14.0005 19.7811ZM14.0005 19.7811L13.7399 19.9398L8.89824 22.8881L8.89735 22.8887C8.40323 23.191 7.76935 22.7529 7.90723 22.1536L9.19051 16.5874L9.2577 16.296L9.03274 16.099L4.75107 12.3488L4.75089 12.3486C4.29286 11.9478 4.55281 11.2056 5.1267 11.1595L5.1267 11.1595L5.12938 11.1592L10.7644 10.6757L11.0655 10.6499L11.1826 10.3712L13.3876 5.12325L13.3884 5.12132C13.6144 4.57707 14.3855 4.57707 14.6115 5.12132L14.6122 5.12288L16.8172 10.3827L16.9341 10.6616L17.2355 10.6875L22.8705 11.171L22.8732 11.1713C23.4471 11.2174 23.7071 11.9596 23.249 12.3604L23.2489 12.3605L18.9672 16.1108L18.7422 16.3078L18.8094 16.5992L20.0927 22.1654L14.0005 19.7811Z" stroke="black"/>
</svg>
