<svg width="45" height="41" viewBox="0 0 45 41" fill="none" xmlns="http://www.w3.org/2000/svg">
<rect y="0.156738" width="45" height="40.5882" rx="15" fill="#EBEBEB" fill-opacity="0.4"/>
<path d="M20.1827 9.51083C20.3695 9.04922 20.6898 8.6539 21.1027 8.37555C21.5156 8.09719 22.0022 7.94849 22.5002 7.94849C22.9981 7.94849 23.4848 8.09719 23.8977 8.37555C24.3106 8.6539 24.6309 9.04922 24.8177 9.51083C26.6661 10.0192 28.2966 11.1203 29.4586 12.645C30.6207 14.1697 31.2501 16.0338 31.2502 17.9508V23.8221L33.5402 27.2571C33.6658 27.4453 33.7379 27.6641 33.7489 27.8902C33.7599 28.1162 33.7093 28.341 33.6025 28.5405C33.4958 28.7401 33.3368 28.9069 33.1427 29.0232C32.9486 29.1395 32.7265 29.2009 32.5002 29.2008H26.8314C26.6809 30.2422 26.1603 31.1945 25.3648 31.8833C24.5694 32.572 23.5524 32.9511 22.5002 32.9511C21.448 32.9511 20.431 32.572 19.6356 31.8833C18.8401 31.1945 18.3194 30.2422 18.1689 29.2008H12.5002C12.2739 29.2009 12.0518 29.1395 11.8577 29.0232C11.6635 28.9069 11.5046 28.7401 11.3978 28.5405C11.2911 28.341 11.2405 28.1162 11.2515 27.8902C11.2625 27.6641 11.3346 27.4453 11.4602 27.2571L13.7502 23.8221V17.9508C13.7502 13.9208 16.4752 10.5258 20.1827 9.51083ZM20.7327 29.2008C20.8618 29.5666 21.1012 29.8834 21.4178 30.1075C21.7345 30.3315 22.1129 30.4518 22.5008 30.4518C22.8887 30.4518 23.2671 30.3315 23.5838 30.1075C23.9005 29.8834 24.1398 29.5666 24.2689 29.2008H20.7314H20.7327ZM22.5002 11.7008C20.8426 11.7008 19.2529 12.3593 18.0808 13.5314C16.9087 14.7035 16.2502 16.2932 16.2502 17.9508V24.2008C16.2502 24.4477 16.1772 24.6891 16.0402 24.8946L14.8364 26.7008H30.1627L28.9589 24.8946C28.8224 24.689 28.7498 24.4476 28.7502 24.2008V17.9508C28.7502 16.2932 28.0917 14.7035 26.9196 13.5314C25.7475 12.3593 24.1578 11.7008 22.5002 11.7008Z" fill="#898A8D"/>
<circle cx="28.75" cy="12.9509" r="4.375" fill="#FF0000" stroke="#EBEBEB" stroke-width="1.25"/>
</svg>
