<svg width="22" height="22" viewBox="0 0 22 22" fill="none" xmlns="http://www.w3.org/2000/svg">
<path d="M7.51559 20.5468H14.0312M7.51559 20.5468V15.1171M7.51559 20.5468H1.65156C1.29171 20.5468 1 20.2551 1 19.8952V15.7687C1 15.4088 1.29171 15.1171 1.65156 15.1171H7.51559M14.0312 20.5468V7.51559M14.0312 20.5468H19.8952C20.2551 20.5468 20.5468 20.2551 20.5468 19.8952V1.65156C20.5468 1.29171 20.2551 1 19.8952 1H14.6827C14.3229 1 14.0312 1.29171 14.0312 1.65156V7.51559M7.51559 15.1171V8.16715C7.51559 7.80731 7.80731 7.51559 8.16715 7.51559H14.0312" stroke="black"/>
</svg>
