<svg width="21" height="21" viewBox="0 0 21 21" fill="none" xmlns="http://www.w3.org/2000/svg">
<path d="M1 4.68945H19.6667V8.73284H1V4.68945Z" stroke="black" stroke-miterlimit="10" stroke-linecap="round" stroke-linejoin="round"/>
<path d="M16.5553 20.4136H4.11083C3.12896 20.4136 2.33301 19.609 2.33301 18.6165V8.73267H18.333V18.6165C18.333 19.609 17.5371 20.4136 16.5553 20.4136Z" stroke="black" stroke-miterlimit="10" stroke-linecap="round" stroke-linejoin="round"/>
<path d="M8.55591 8.73267V20.4136" stroke="black" stroke-miterlimit="10" stroke-linecap="round" stroke-linejoin="round"/>
<path d="M12.1106 8.73267V20.4136" stroke="black" stroke-miterlimit="10" stroke-linecap="round" stroke-linejoin="round"/>
<path d="M7.66626 4.68945V8.73284" stroke="black" stroke-miterlimit="10" stroke-linecap="round" stroke-linejoin="round"/>
<path d="M13.0005 4.68945V8.73284" stroke="black" stroke-miterlimit="10" stroke-linecap="round" stroke-linejoin="round"/>
<path d="M10.3336 4.68941C10.3336 4.68941 10.0732 1.90176 13.0002 1.09533C15.9273 0.288904 16.7999 4.86884 10.3336 4.68941Z" stroke="black" stroke-miterlimit="10" stroke-linecap="round" stroke-linejoin="round"/>
<path d="M10.7717 4.68941C10.7717 4.68941 11.0321 1.90176 8.10505 1.09533C5.17781 0.288904 4.30536 4.86884 10.7717 4.68941Z" stroke="black" stroke-miterlimit="10" stroke-linecap="round" stroke-linejoin="round"/>
</svg>
