<svg width="65" height="65" viewBox="0 0 65 65" fill="none" xmlns="http://www.w3.org/2000/svg">
<path d="M10.099 2.03125C10.099 1.49253 10.3137 0.975873 10.6957 0.594939C11.0777 0.214006 11.5958 0 12.1361 0L52.8762 0C53.4164 0 53.9345 0.214006 54.3165 0.594939C54.6986 0.975873 54.9132 1.49253 54.9132 2.03125C54.9132 4.21688 54.867 6.29688 54.7746 8.27125C56.3844 8.53706 57.9245 9.12161 59.3041 9.99042C60.6837 10.8592 61.8749 11.9947 62.8074 13.3299C63.7399 14.6651 64.3949 16.173 64.7337 17.7646C65.0724 19.3562 65.0882 20.9994 64.78 22.5972C64.4717 24.195 63.8458 25.7151 62.939 27.0678C62.0323 28.4205 60.8631 29.5785 59.5004 30.4734C58.1377 31.3683 56.609 31.9821 55.0046 32.2785C53.4003 32.575 51.7526 32.5481 50.1588 32.1994C46.9403 39.7759 42.5078 43.4809 38.6171 44.4316V53.2594L44.4226 54.7056C45.2129 54.9006 45.9585 55.2541 46.6103 55.7416L54.0984 61.3438C54.4404 61.5995 54.693 61.9562 54.8205 62.3631C54.948 62.77 54.9438 63.2066 54.8086 63.6111C54.6734 64.0155 54.4141 64.3673 54.0672 64.6166C53.7204 64.8659 53.3037 65 52.8762 65H12.1361C11.7085 65 11.2918 64.8659 10.945 64.6166C10.5982 64.3673 10.3388 64.0155 10.2036 63.6111C10.0684 63.2066 10.0642 62.77 10.1917 62.3631C10.3192 61.9562 10.5718 61.5995 10.9138 61.3438L18.4019 55.7416C19.0537 55.2541 19.7993 54.9006 20.5896 54.7056L26.3951 53.2594V44.4316C22.5044 43.4809 18.0719 39.7759 14.8534 32.1953C13.2588 32.5459 11.6099 32.5743 10.0041 32.2788C8.39828 31.9833 6.86814 31.3699 5.50402 30.4749C4.1399 29.5799 2.96948 28.4214 2.06186 27.0677C1.15425 25.7141 0.527847 24.1929 0.219656 22.5939C-0.0885341 20.9948 -0.0722657 19.3504 0.267501 17.7577C0.607267 16.1651 1.26364 14.6564 2.19786 13.321C3.13208 11.9855 4.3252 10.8502 5.70676 9.98219C7.08832 9.11418 8.6303 8.53103 10.2416 8.26719C10.1456 6.18993 10.0981 4.11072 10.099 2.03125ZM10.5024 12.35C8.3765 12.7379 6.49222 13.952 5.26405 15.7252C4.03588 17.4985 3.56442 19.6856 3.9534 21.8055C4.34238 23.9253 5.55992 25.8043 7.33819 27.029C9.11646 28.2537 11.3098 28.7238 13.4357 28.3359C12.079 24.0703 11.0401 18.8053 10.5024 12.35ZM51.5806 28.3359C53.7065 28.7238 55.8998 28.2537 57.6781 27.029C59.4564 25.8043 60.6739 23.9253 61.0629 21.8055C61.4519 19.6856 60.9804 17.4985 59.7522 15.7252C58.5241 13.952 56.6398 12.7379 54.5139 12.35C53.9721 18.8094 52.9332 24.0703 51.5806 28.3359Z" fill="black"/>
</svg>
