<svg width="84" height="84" viewBox="0 0 84 84" fill="none" xmlns="http://www.w3.org/2000/svg">
<path d="M70 7H14V14L34.335 29.26C28.1636 31.295 23.0527 35.6971 20.1256 41.4988C17.1985 47.3005 16.6947 54.027 18.725 60.2C19.7295 63.2579 21.327 66.0878 23.4261 68.5278C25.5253 70.9678 28.0849 72.97 30.9586 74.4198C33.8322 75.8696 36.9636 76.7387 40.1734 76.9772C43.3832 77.2158 46.6086 76.8191 49.665 75.81C54.5667 74.1989 58.8346 71.0814 61.8603 66.902C64.8859 62.7226 66.5149 57.6947 66.5149 52.535C66.5149 47.3753 64.8859 42.3474 61.8603 38.168C58.8346 33.9886 54.5667 30.8711 49.665 29.26L70 14V7ZM52.29 68.25L42 62.23L31.71 68.25L34.44 56.595L25.375 48.755L37.31 47.74L42 36.75L46.69 47.74L58.625 48.755L49.56 56.595L52.29 68.25Z" fill="black"/>
</svg>
