<svg width="177" height="16" viewBox="0 0 177 16" fill="none" xmlns="http://www.w3.org/2000/svg">
<path d="M10.616 11.424C10.408 11.6 10.136 11.744 9.8 11.856C9.48 11.952 9.104 12 8.672 12C8.096 12 7.616 11.928 7.232 11.784C6.864 11.64 6.624 11.392 6.512 11.04C6.064 9.632 5.696 8.496 5.408 7.632C5.12 6.752 4.896 5.984 4.736 5.328H4.616C4.568 6.272 4.528 7.136 4.496 7.92C4.48 8.688 4.464 9.44 4.448 10.176C4.448 10.912 4.432 11.656 4.4 12.408C4.384 13.16 4.352 13.992 4.304 14.904C4.096 14.984 3.824 15.048 3.488 15.096C3.152 15.16 2.816 15.192 2.48 15.192C1.776 15.192 1.224 15.08 0.824 14.856C0.44 14.632 0.248 14.224 0.248 13.632L0.944 1.392C1.072 1.184 1.352 0.959999 1.784 0.719999C2.216 0.48 2.824 0.36 3.608 0.36C4.456 0.36 5.12 0.495999 5.6 0.767999C6.08 1.024 6.432 1.448 6.656 2.04C6.8 2.424 6.952 2.864 7.112 3.36C7.288 3.856 7.456 4.368 7.616 4.896C7.792 5.424 7.96 5.952 8.12 6.48C8.28 6.992 8.424 7.456 8.552 7.872H8.672C9.056 6.528 9.44 5.232 9.824 3.984C10.208 2.72 10.56 1.664 10.88 0.816C11.12 0.687999 11.424 0.583999 11.792 0.503999C12.176 0.408 12.6 0.36 13.064 0.36C13.848 0.36 14.488 0.48 14.984 0.719999C15.48 0.943999 15.768 1.272 15.848 1.704C15.912 2.024 15.976 2.52 16.04 3.192C16.12 3.848 16.2 4.592 16.28 5.424C16.36 6.256 16.44 7.136 16.52 8.064C16.6 8.992 16.672 9.888 16.736 10.752C16.816 11.6 16.88 12.384 16.928 13.104C16.976 13.808 17.008 14.352 17.024 14.736C16.752 14.896 16.464 15.008 16.16 15.072C15.872 15.152 15.496 15.192 15.032 15.192C14.424 15.192 13.912 15.088 13.496 14.88C13.08 14.672 12.856 14.264 12.824 13.656C12.728 11.912 12.664 10.344 12.632 8.952C12.616 7.56 12.584 6.392 12.536 5.448H12.416C12.256 6.072 12.024 6.856 11.72 7.8C11.416 8.744 11.048 9.952 10.616 11.424ZM19.925 2.688C19.925 2 20.125 1.456 20.525 1.056C20.925 0.656 21.469 0.456 22.157 0.456H30.077C30.189 0.631999 30.285 0.863999 30.365 1.152C30.461 1.44 30.509 1.744 30.509 2.064C30.509 2.672 30.373 3.104 30.101 3.36C29.845 3.616 29.501 3.744 29.069 3.744H24.005V5.976H29.405C29.517 6.152 29.613 6.384 29.693 6.672C29.789 6.944 29.837 7.24 29.837 7.56C29.837 8.168 29.709 8.6 29.453 8.856C29.197 9.112 28.853 9.24 28.421 9.24H24.005V11.76H30.173C30.285 11.936 30.381 12.168 30.461 12.456C30.557 12.744 30.605 13.048 30.605 13.368C30.605 13.976 30.469 14.416 30.197 14.688C29.941 14.944 29.597 15.072 29.165 15.072H22.157C21.469 15.072 20.925 14.872 20.525 14.472C20.125 14.072 19.925 13.528 19.925 12.84V2.688ZM37.5586 9.216C36.8546 8.976 36.2146 8.736 35.6386 8.496C35.0626 8.24 34.5666 7.936 34.1506 7.584C33.7346 7.232 33.4066 6.816 33.1666 6.336C32.9426 5.84 32.8306 5.24 32.8306 4.536C32.8306 3.176 33.3506 2.088 34.3906 1.272C35.4466 0.455999 36.9186 0.0479994 38.8066 0.0479994C39.4946 0.0479994 40.1346 0.0959992 40.7266 0.191999C41.3186 0.288 41.8226 0.44 42.2386 0.647999C42.6706 0.839999 43.0066 1.096 43.2466 1.416C43.4866 1.72 43.6066 2.08 43.6066 2.496C43.6066 2.912 43.5106 3.272 43.3186 3.576C43.1266 3.864 42.8946 4.112 42.6226 4.32C42.2706 4.096 41.7986 3.904 41.2066 3.744C40.6146 3.568 39.9666 3.48 39.2626 3.48C38.5426 3.48 38.0146 3.584 37.6786 3.792C37.3426 3.984 37.1746 4.232 37.1746 4.536C37.1746 4.776 37.2786 4.976 37.4866 5.136C37.6946 5.28 38.0066 5.416 38.4226 5.544L39.6946 5.952C41.1986 6.432 42.3506 7.048 43.1506 7.8C43.9666 8.536 44.3746 9.544 44.3746 10.824C44.3746 12.184 43.8386 13.288 42.7666 14.136C41.6946 14.968 40.1186 15.384 38.0386 15.384C37.3026 15.384 36.6146 15.32 35.9746 15.192C35.3506 15.08 34.7986 14.912 34.3186 14.688C33.8546 14.448 33.4866 14.16 33.2146 13.824C32.9586 13.472 32.8306 13.072 32.8306 12.624C32.8306 12.16 32.9666 11.768 33.2386 11.448C33.5106 11.112 33.8066 10.856 34.1266 10.68C34.5746 11.032 35.1186 11.336 35.7586 11.592C36.4146 11.848 37.1266 11.976 37.8946 11.976C38.6786 11.976 39.2306 11.856 39.5506 11.616C39.8706 11.376 40.0306 11.096 40.0306 10.776C40.0306 10.456 39.9026 10.216 39.6466 10.056C39.3906 9.88 39.0306 9.712 38.5666 9.552L37.5586 9.216ZM59.8974 14.904C59.7214 14.952 59.4414 15 59.0574 15.048C58.6894 15.096 58.3214 15.12 57.9534 15.12C57.5854 15.12 57.2574 15.088 56.9694 15.024C56.6974 14.976 56.4654 14.88 56.2734 14.736C56.0814 14.592 55.9374 14.392 55.8414 14.136C55.7454 13.88 55.6974 13.544 55.6974 13.128V9.384H51.0894V14.904C50.9134 14.952 50.6334 15 50.2494 15.048C49.8814 15.096 49.5134 15.12 49.1454 15.12C48.7774 15.12 48.4494 15.088 48.1614 15.024C47.8894 14.976 47.6574 14.88 47.4654 14.736C47.2734 14.592 47.1294 14.392 47.0334 14.136C46.9374 13.88 46.8894 13.544 46.8894 13.128V0.456C47.0654 0.423999 47.3454 0.383999 47.7294 0.336C48.1134 0.272 48.4814 0.24 48.8334 0.24C49.2014 0.24 49.5214 0.272 49.7934 0.336C50.0814 0.383999 50.3214 0.479999 50.5134 0.623999C50.7054 0.767999 50.8494 0.967999 50.9454 1.224C51.0414 1.48 51.0894 1.816 51.0894 2.232V6.072H55.6974V0.456C55.8734 0.423999 56.1534 0.383999 56.5374 0.336C56.9214 0.272 57.2894 0.24 57.6414 0.24C58.0094 0.24 58.3294 0.272 58.6014 0.336C58.8894 0.383999 59.1294 0.479999 59.3214 0.623999C59.5134 0.767999 59.6574 0.967999 59.7534 1.224C59.8494 1.48 59.8974 1.816 59.8974 2.232V14.904ZM67.4544 14.904C67.2784 14.952 66.9984 15 66.6144 15.048C66.2464 15.096 65.8784 15.12 65.5104 15.12C65.1424 15.12 64.8144 15.088 64.5264 15.024C64.2544 14.976 64.0224 14.88 63.8304 14.736C63.6384 14.592 63.4944 14.392 63.3984 14.136C63.3024 13.88 63.2544 13.544 63.2544 13.128V0.456C63.4304 0.423999 63.7104 0.383999 64.0944 0.336C64.4784 0.272 64.8464 0.24 65.1984 0.24C65.5664 0.24 65.8864 0.272 66.1584 0.336C66.4464 0.383999 66.6864 0.479999 66.8784 0.623999C67.0704 0.767999 67.2144 0.967999 67.3104 1.224C67.4064 1.48 67.4544 1.816 67.4544 2.232V14.904Z" fill="black"/>
<path d="M74.9829 10.296V14.904C74.8069 14.952 74.5269 15 74.1429 15.048C73.7749 15.096 73.4069 15.12 73.0389 15.12C72.6709 15.12 72.3429 15.088 72.0549 15.024C71.7829 14.976 71.5509 14.88 71.3589 14.736C71.1829 14.592 71.0469 14.392 70.9509 14.136C70.8549 13.88 70.8069 13.544 70.8069 13.128V1.824C70.8069 1.488 70.8949 1.232 71.0709 1.056C71.2629 0.863999 71.5189 0.711999 71.8389 0.599999C72.3829 0.407999 73.0149 0.271999 73.7349 0.191999C74.4549 0.0959992 75.2229 0.0479994 76.0389 0.0479994C78.2469 0.0479994 79.9109 0.512 81.0309 1.44C82.1509 2.368 82.7109 3.624 82.7109 5.208C82.7109 6.2 82.4549 7.048 81.9429 7.752C81.4309 8.456 80.8229 9 80.1189 9.384C80.6949 10.168 81.2629 10.904 81.8229 11.592C82.3829 12.28 82.8229 12.904 83.1429 13.464C82.9829 14.024 82.6869 14.456 82.2549 14.76C81.8389 15.048 81.3669 15.192 80.8389 15.192C80.4869 15.192 80.1829 15.152 79.9269 15.072C79.6709 14.992 79.4469 14.88 79.2549 14.736C79.0629 14.592 78.8869 14.416 78.7269 14.208C78.5669 14 78.4149 13.776 78.2709 13.536L76.2549 10.296H74.9829ZM76.4949 7.104C77.1029 7.104 77.5829 6.952 77.9349 6.648C78.2869 6.328 78.4629 5.864 78.4629 5.256C78.4629 4.648 78.2629 4.192 77.8629 3.888C77.4789 3.568 76.8629 3.408 76.0149 3.408C75.7749 3.408 75.5829 3.416 75.4389 3.432C75.2949 3.448 75.1349 3.472 74.9589 3.504V7.104H76.4949ZM85.6719 2.688C85.6719 2 85.8719 1.456 86.2719 1.056C86.6719 0.656 87.2159 0.456 87.9039 0.456H95.8239C95.9359 0.631999 96.0319 0.863999 96.1119 1.152C96.2079 1.44 96.2559 1.744 96.2559 2.064C96.2559 2.672 96.1199 3.104 95.8479 3.36C95.5919 3.616 95.2479 3.744 94.8159 3.744H89.7519V5.976H95.1519C95.2639 6.152 95.3599 6.384 95.4399 6.672C95.5359 6.944 95.5839 7.24 95.5839 7.56C95.5839 8.168 95.4559 8.6 95.1999 8.856C94.9439 9.112 94.5999 9.24 94.1679 9.24H89.7519V11.76H95.9199C96.0319 11.936 96.1279 12.168 96.2079 12.456C96.3039 12.744 96.3519 13.048 96.3519 13.368C96.3519 13.976 96.2159 14.416 95.9439 14.688C95.6879 14.944 95.3439 15.072 94.9119 15.072H87.9039C87.2159 15.072 86.6719 14.872 86.2719 14.472C85.8719 14.072 85.6719 13.528 85.6719 12.84V2.688ZM105.78 4.008C105.956 3.928 106.228 3.84 106.596 3.744C106.98 3.632 107.364 3.576 107.748 3.576C108.42 3.576 108.98 3.68 109.428 3.888C109.876 4.08 110.148 4.368 110.244 4.752C110.42 5.408 110.58 6.024 110.724 6.6C110.884 7.16 111.036 7.704 111.18 8.232C111.324 8.744 111.46 9.256 111.588 9.768C111.732 10.28 111.868 10.816 111.996 11.376H112.116C112.26 10.4 112.388 9.472 112.5 8.592C112.612 7.696 112.716 6.824 112.812 5.976C112.908 5.112 113.004 4.264 113.1 3.432C113.196 2.584 113.292 1.728 113.388 0.863999C113.98 0.527999 114.612 0.36 115.284 0.36C115.876 0.36 116.388 0.487999 116.82 0.743999C117.252 1 117.468 1.432 117.468 2.04C117.468 2.392 117.428 2.896 117.348 3.552C117.284 4.192 117.188 4.912 117.06 5.712C116.948 6.512 116.812 7.352 116.652 8.232C116.492 9.112 116.324 9.952 116.148 10.752C115.972 11.552 115.788 12.28 115.596 12.936C115.42 13.576 115.252 14.072 115.092 14.424C114.852 14.648 114.46 14.832 113.916 14.976C113.372 15.12 112.812 15.192 112.236 15.192C111.484 15.192 110.844 15.096 110.316 14.904C109.804 14.696 109.492 14.408 109.38 14.04C109.172 13.4 108.948 12.64 108.708 11.76C108.468 10.88 108.212 9.912 107.94 8.856C107.716 9.896 107.484 10.912 107.244 11.904C107.004 12.896 106.788 13.736 106.596 14.424C106.356 14.648 105.996 14.832 105.516 14.976C105.036 15.12 104.508 15.192 103.932 15.192C103.212 15.192 102.556 15.096 101.964 14.904C101.388 14.696 101.012 14.408 100.836 14.04C100.692 13.752 100.532 13.328 100.356 12.768C100.196 12.192 100.028 11.544 99.8523 10.824C99.6763 10.088 99.4923 9.296 99.3003 8.448C99.1243 7.6 98.9563 6.752 98.7963 5.904C98.6523 5.056 98.5163 4.232 98.3883 3.432C98.2603 2.616 98.1643 1.872 98.1003 1.2C98.3243 0.992 98.6363 0.8 99.0363 0.623999C99.4363 0.447999 99.8683 0.36 100.332 0.36C100.94 0.36 101.436 0.495999 101.82 0.767999C102.22 1.024 102.468 1.464 102.564 2.088C102.82 3.72 103.028 5.08 103.188 6.168C103.364 7.256 103.5 8.152 103.596 8.856C103.708 9.544 103.788 10.08 103.836 10.464C103.884 10.848 103.932 11.152 103.98 11.376H104.1C104.244 10.736 104.38 10.144 104.508 9.6C104.636 9.056 104.764 8.512 104.892 7.968C105.036 7.408 105.18 6.816 105.324 6.192C105.468 5.552 105.62 4.824 105.78 4.008ZM122.763 0.888C123.035 0.727999 123.443 0.575999 123.987 0.431999C124.547 0.287999 125.107 0.215999 125.667 0.215999C126.467 0.215999 127.171 0.335999 127.779 0.576C128.403 0.8 128.803 1.16 128.979 1.656C129.267 2.488 129.579 3.456 129.915 4.56C130.251 5.664 130.587 6.808 130.923 7.992C131.259 9.16 131.587 10.32 131.907 11.472C132.227 12.608 132.507 13.616 132.747 14.496C132.555 14.72 132.267 14.896 131.883 15.024C131.499 15.168 131.043 15.24 130.515 15.24C130.131 15.24 129.803 15.208 129.531 15.144C129.275 15.08 129.059 14.984 128.883 14.856C128.723 14.728 128.587 14.56 128.475 14.352C128.379 14.144 128.291 13.904 128.211 13.632L127.779 11.976H123.435C123.307 12.456 123.179 12.952 123.051 13.464C122.923 13.976 122.795 14.472 122.667 14.952C122.443 15.032 122.203 15.096 121.947 15.144C121.707 15.208 121.411 15.24 121.059 15.24C120.243 15.24 119.635 15.104 119.235 14.832C118.851 14.544 118.659 14.152 118.659 13.656C118.659 13.432 118.691 13.208 118.755 12.984C118.819 12.76 118.891 12.496 118.971 12.192C119.083 11.76 119.235 11.224 119.427 10.584C119.635 9.944 119.859 9.256 120.099 8.52C120.339 7.768 120.595 7 120.867 6.216C121.139 5.432 121.395 4.696 121.635 4.008C121.875 3.304 122.091 2.68 122.283 2.136C122.491 1.592 122.651 1.176 122.763 0.888ZM125.643 3.984C125.419 4.656 125.163 5.408 124.875 6.24C124.603 7.056 124.355 7.888 124.131 8.736H127.107C126.883 7.872 126.651 7.032 126.411 6.216C126.187 5.384 125.979 4.64 125.787 3.984H125.643ZM139.13 10.296V14.904C138.954 14.952 138.674 15 138.29 15.048C137.922 15.096 137.554 15.12 137.186 15.12C136.818 15.12 136.49 15.088 136.202 15.024C135.93 14.976 135.698 14.88 135.506 14.736C135.33 14.592 135.194 14.392 135.098 14.136C135.002 13.88 134.954 13.544 134.954 13.128V1.824C134.954 1.488 135.042 1.232 135.218 1.056C135.41 0.863999 135.666 0.711999 135.986 0.599999C136.53 0.407999 137.162 0.271999 137.882 0.191999C138.602 0.0959992 139.37 0.0479994 140.186 0.0479994C142.394 0.0479994 144.058 0.512 145.178 1.44C146.298 2.368 146.858 3.624 146.858 5.208C146.858 6.2 146.602 7.048 146.09 7.752C145.578 8.456 144.97 9 144.266 9.384C144.842 10.168 145.41 10.904 145.97 11.592C146.53 12.28 146.97 12.904 147.29 13.464C147.13 14.024 146.834 14.456 146.402 14.76C145.986 15.048 145.514 15.192 144.986 15.192C144.634 15.192 144.33 15.152 144.074 15.072C143.818 14.992 143.594 14.88 143.402 14.736C143.21 14.592 143.034 14.416 142.874 14.208C142.714 14 142.562 13.776 142.418 13.536L140.402 10.296H139.13ZM140.642 7.104C141.25 7.104 141.73 6.952 142.082 6.648C142.434 6.328 142.61 5.864 142.61 5.256C142.61 4.648 142.41 4.192 142.01 3.888C141.626 3.568 141.01 3.408 140.162 3.408C139.922 3.408 139.73 3.416 139.586 3.432C139.442 3.448 139.282 3.472 139.106 3.504V7.104H140.642ZM153.995 11.88C154.171 11.912 154.387 11.944 154.643 11.976C154.899 11.992 155.139 12 155.363 12C155.907 12 156.403 11.92 156.851 11.76C157.315 11.6 157.707 11.352 158.027 11.016C158.363 10.68 158.619 10.248 158.795 9.72C158.987 9.176 159.083 8.528 159.083 7.776C159.083 6.336 158.747 5.256 158.075 4.536C157.403 3.8 156.507 3.432 155.387 3.432C155.163 3.432 154.931 3.44 154.691 3.456C154.467 3.472 154.235 3.496 153.995 3.528V11.88ZM155.339 15.384C155.067 15.384 154.755 15.376 154.403 15.36C154.051 15.344 153.683 15.312 153.299 15.264C152.931 15.216 152.555 15.152 152.171 15.072C151.803 15.008 151.459 14.912 151.139 14.784C150.259 14.448 149.819 13.864 149.819 13.032V1.824C149.819 1.488 149.907 1.232 150.083 1.056C150.275 0.863999 150.531 0.711999 150.851 0.599999C151.539 0.375999 152.267 0.231999 153.035 0.167999C153.803 0.0879993 154.491 0.0479994 155.099 0.0479994C156.347 0.0479994 157.475 0.199999 158.483 0.503999C159.507 0.807999 160.379 1.28 161.099 1.92C161.835 2.544 162.403 3.336 162.803 4.296C163.203 5.256 163.403 6.392 163.403 7.704C163.403 8.984 163.211 10.104 162.827 11.064C162.443 12.008 161.891 12.808 161.171 13.464C160.467 14.104 159.619 14.584 158.627 14.904C157.635 15.224 156.539 15.384 155.339 15.384ZM170.172 9.216C169.468 8.976 168.828 8.736 168.252 8.496C167.676 8.24 167.18 7.936 166.764 7.584C166.348 7.232 166.02 6.816 165.78 6.336C165.556 5.84 165.444 5.24 165.444 4.536C165.444 3.176 165.964 2.088 167.004 1.272C168.06 0.455999 169.532 0.0479994 171.42 0.0479994C172.108 0.0479994 172.748 0.0959992 173.34 0.191999C173.932 0.288 174.436 0.44 174.852 0.647999C175.284 0.839999 175.62 1.096 175.86 1.416C176.1 1.72 176.22 2.08 176.22 2.496C176.22 2.912 176.124 3.272 175.932 3.576C175.74 3.864 175.508 4.112 175.236 4.32C174.884 4.096 174.412 3.904 173.82 3.744C173.228 3.568 172.58 3.48 171.876 3.48C171.156 3.48 170.628 3.584 170.292 3.792C169.956 3.984 169.788 4.232 169.788 4.536C169.788 4.776 169.892 4.976 170.1 5.136C170.308 5.28 170.62 5.416 171.036 5.544L172.308 5.952C173.812 6.432 174.964 7.048 175.764 7.8C176.58 8.536 176.988 9.544 176.988 10.824C176.988 12.184 176.452 13.288 175.38 14.136C174.308 14.968 172.732 15.384 170.652 15.384C169.916 15.384 169.228 15.32 168.588 15.192C167.964 15.08 167.412 14.912 166.932 14.688C166.468 14.448 166.1 14.16 165.828 13.824C165.572 13.472 165.444 13.072 165.444 12.624C165.444 12.16 165.58 11.768 165.852 11.448C166.124 11.112 166.42 10.856 166.74 10.68C167.188 11.032 167.732 11.336 168.372 11.592C169.028 11.848 169.74 11.976 170.508 11.976C171.292 11.976 171.844 11.856 172.164 11.616C172.484 11.376 172.644 11.096 172.644 10.776C172.644 10.456 172.516 10.216 172.26 10.056C172.004 9.88 171.644 9.712 171.18 9.552L170.172 9.216Z" fill="#147DB9"/>
</svg>
